aired on 2/14/2011 S01E02

Following the shocking events related to a fallen officer, Teresa and Jarek vow to bring whoever is responsible to justice. In the meantime, Alderman Gibbons pays a visit to the victim's family to offer his condolences and plant a few seeds of betrayal, implicating members of the Chicago Police Department. As every officer in the city hits the streets to avenge this cop killer, Jarek and Caleb follow up on some of Liam's leads, while Vonda and Isaac are promoted to the organized-crime task force.

General
Complete name                    : The Chicago Code S01E02 HDTV_JHW.mp4
Format                           : MPEG-4
Format profile                   : Base Media
Codec ID                         : isom
File size                        : 406 MiB
Duration                         : 43mn 43s
Overall bit rate                 : 1 297 Kbps
Encoded date                     : UTC 2011-02-15 04:04:27
Tagged date                      : UTC 2011-02-15 04:04:27

Video
ID                               : 2
Format                           : AVC
Format/Info                      : Advanced Video Codec
Format profile                   : Baseline@L3.0
Format settings, CABAC           : No
Format settings, ReFrames        : 1 frame
Codec ID                         : avc1
Codec ID/Info                    : Advanced Video Coding
Duration                         : 43mn 43s
Bit rate mode                    : Constant
Bit rate                         : 1 200 Kbps
Width                            : 640 pixels
Height                           : 480 pixels
Display aspect ratio             : 4:3
Frame rate mode                  : Constant
Frame rate                       : 29.970 fps
Color space                      : YUV
Chroma subsampling               : 4:2:0
Bit depth                        : 8 bits
Scan type                        : Progressive
Bits/(Pixel*Frame)               : 0.130
Stream size                      : 374 MiB (92%)
Language                         : English

Audio
ID                               : 1
Format                           : AAC
Format/Info                      : Advanced Audio Codec
Format profile                   : LC
Codec ID                         : 40
Duration                         : 43mn 43s
Bit rate mode                    : Constant
Bit rate                         : 96.0 Kbps
Channel(s)                       : 2 channels
Channel positions                : Front: L R
Sampling rate                    : 44.1 KHz
Compression mode                 : Lossy
Stream size                      : 30.0 MiB (7%)
Language                         : English
